<?xml version="1.0" encoding="UTF-8" ?><!DOCTYPE svg PUBLIC "-//W3C//DTD SVG 1.1 Basic//EN" "http://www.w3.org/Graphics/SVG/1.1/DTD/svg11-basic.dtd">
<svg xmlns="http://www.w3.org/2000/svg" width="64" height="64" viewBox="0 0 64 64" baseProfile="basic" version="1.1">
 <path id="path1334" d="m31.188 0c-17.283 0.43835-31.188 14.612-31.188 32 2.3685e-15 17.664 14.336 32 32 32s32-14.336 32-32-14.336-32-32-32c-0.276 3.7007e-17 -0.538-0.006958-0.812 0zm-0.032 5.5c0.284-0.009 0.558 0 0.844 0 14.628 0 26.5 11.872 26.5 26.5s-11.872 26.5-26.5 26.5-26.5-11.872-26.5-26.5c0-14.342 11.423-26.049 25.656-26.5z"/>
 <path id="path1336" d="m30.01 31.878a26.564 26.564 0 1 1 -53.129 0 26.564 26.564 0 1 1 53.129 0z" transform="matrix(.99758 0 0 .99758 28.563 .19856)" fill="#fff"/>
 <path id="text1367" d="m25.645 38.743c2.061 2.882 8.351 3.09 10.51 1.868 0.793-0.448 0.991-1.746 0.991-2.627 0-0.604-0.159-1.078-0.477-1.424-0.336-0.345-1.19-1.221-2.179-1.48-5.016-1.294-8.491-2.911-9.851-4.084-1.696-1.467-1.97-2.425-1.97-4.98 0-2.554 0.735-4.695 2.395-6.231s4.071-2.304 7.233-2.304c3.021 0 7.268 0.798 9.34 3.256l-3.453 3.756c-1.948-1.635-3.396-1.782-5.781-1.782-1.501 0-2.283 0.215-2.919 0.647-0.636 0.414-0.954 0.958-0.954 1.631 0 0.604 0.292 1.104 0.875 1.501 0.583 0.414 2.106 1.036 5.144 1.864 3.409 0.932 5.723 2.063 6.942 3.391 1.201 1.329 1.802 3.098 1.802 5.307 0 2.658-0.937 4.85-2.809 6.576-1.855 1.726-4.138 3.067-7.423 3.067-4.229 0-9.874-1.494-11.431-4.255" />
 <path id="rect2247" d="m12.188-70.549l5.802 0.042v56.072l-5.802-0.041v-56.073z" transform="matrix(-.40835 .91283 -.91173 -.41080 0 0)"/>
 <path id="rect2278" d="m30.375 12.875v6.844h3.25v-6.844h-3.25zm0 32.094v6.156h3.25v-6.156h-3.25z"/>
</svg>
